<?xml version="1.0" encoding="UTF-8"?>
<svg width="14px" height="14px" viewBox="0 0 14 14" version="1.1" xmlns="http://www.w3.org/2000/svg" xmlns:xlink="http://www.w3.org/1999/xlink">
    <title>切片</title>
    <g id="-" stroke="none" stroke-width="1" fill="none" fill-rule="evenodd">
        <g id="网络" transform="translate(-1132.000000, -269.000000)" fill-rule="nonzero">
            <g id="驱动还原列表" transform="translate(797.000000, 200.000000)">
                <g id="编组-9" transform="translate(88.000000, 20.000000)">
                    <g id="控件/？" transform="translate(247.000000, 49.000000)">
                        <g id="编组" transform="translate(1.000000, 1.000000)">
                            <path d="M6.55270589,8.29750368 L6.55270589,9.29209191 L5.55811765,9.29209191 L5.55811765,8.29750368 L6.55270589,8.29750368 Z M6.32047059,2.66103309 C7.48094119,2.72738604 8.07776471,3.29103309 8.21011765,4.38515073 C8.24364705,5.0483272 7.87870588,5.64515073 7.08317647,6.17562132 C6.58588236,6.50738603 6.35400001,6.9047978 6.354,7.33609191 L6.354,7.6343272 L5.55776471,7.6343272 L5.55776471,7.26973897 C5.52458824,6.67291545 5.82317648,6.14244485 6.35364707,5.7443272 C6.95011766,5.31373897 7.24870589,4.88244485 7.18235295,4.4843272 C7.116,3.88785661 6.78458824,3.55609191 6.15458824,3.52291545 C5.42505884,3.48973897 4.96094119,3.92103309 4.79541177,4.81609191 L3.9,4.58385662 C4.16541177,3.25785662 4.99411765,2.62785662 6.32047059,2.66103309 Z" id="形状结合" fill="#335EFF"></path>
                            <path d="M6,11.9996452 C2.70017741,12 -2.04281037e-14,9.29982259 -2.04281037e-14,6 C-2.04281037e-14,2.70017741 2.70017741,-2.04281037e-14 6,-2.04281037e-14 C9.29982259,-2.04281037e-14 12,2.70017741 12,6 C12,9.29982259 9.29982259,12 6,12 L6,11.9996452 Z" id="路径" stroke="#335EFF" stroke-linecap="round" stroke-linejoin="round"></path>
                        </g>
                    </g>
                </g>
            </g>
        </g>
    </g>
</svg>